<?xml version="1.0" encoding="utf-8"?>

<!DOCTYPE svg PUBLIC "-//W3C//DTD SVG 1.0//EN"    "http://www.w3.org/TR/2001/REC-SVG-20010904/DTD/svg10.dtd" >

<svg  
    xmlns="http://www.w3.org/2000/svg" 
    xmlns:xlink="http://www.w3.org/1999/xlink" 
    width="500" 
    height="500" 
    viewBox="0 0 500 500" 
    overflow="visible" 
    enable-background="new 0 0 500 500" 
    xml:space="preserve"
>
	

<g id="Secret Saucer">
    <polygon id="Element 115" fill="#FF0000" points="0,0 500,0 500,500 0,500 0,0 "/>

    <path fill="#FFFFFF" d="M381,124.191c-3.903-19.517-16.394-27.323-35.131-35.129c-18.471-7.697-62.734-16.905-95.396-17.163
    	c-32.662,0.258-76.924,9.466-95.396,17.163c-18.736,7.806-31.227,15.613-35.13,35.129l-14.051,108.194v149.085h24.2v23.379
    	c0,28.507,41.715,28.507,41.715,0v-23.379h77.015h0.244h80.065v23.379c0,28.507,41.715,28.507,41.715,0v-23.379h24.199V232.385
    	L381,124.191z M190.989,99.21h58.081h60.889c11.71,0,11.71,17.564,0,17.564h-61.032h-57.938
    	C179.279,116.774,179.279,99.21,190.989,99.21z M150.971,334.735c-11.052,0-20.012-8.96-20.012-20.012
    	c0-11.053,8.959-20.012,20.012-20.012c11.052,0,20.012,8.959,20.012,20.012C170.983,325.775,162.023,334.735,150.971,334.735z
    	 M249.07,243.788H142.927c-10.392,0-12.567-7.466-11.547-14.988l10.937-78.472c1.502-9.534,4.733-15.82,17.104-15.82h89.507h92.6
    	c12.37,0,15.602,6.286,17.104,15.82l10.938,78.472c1.019,7.521-1.155,14.988-11.548,14.988H249.07z M349.976,334.735
    	c-11.052,0-20.011-8.96-20.011-20.012c0-11.053,8.959-20.012,20.011-20.012s20.012,8.959,20.012,20.012
    	C369.987,325.775,361.027,334.735,349.976,334.735z"/>
</g>
</svg>
